<?xml version="1.0" encoding="utf-8"?>
<!-- Generator: Adobe Illustrator 22.0.1, SVG Export Plug-In . SVG Version: 6.00 Build 0)  -->
<!DOCTYPE svg PUBLIC "-//W3C//DTD SVG 1.1//EN" "http://www.w3.org/Graphics/SVG/1.1/DTD/svg11.dtd">
<svg version="1.1" id="Layer_1" xmlns="http://www.w3.org/2000/svg" xmlns:xlink="http://www.w3.org/1999/xlink" x="0px" y="0px"
	 viewBox="0 0 21.9 15" style="enable-background:new 0 0 21.9 15;" xml:space="preserve">
<style type="text/css">
	.st0{fill:#FF0040;}
	.st1{fill:#100AFF;}
	.st2{fill:#A900FF;}
	.st3{fill:#F25597;}
</style>
<g>
	<path class="st0" d="M21.9,3H10V0h11.9V3z M6,0H3v3h3V0z M21.9,6H10v3h11.9V6z M6,6H3v3h3V6z M21.9,12H10v3h11.9V12z M6,12H3v3h3
		V12z"/>
	<path class="st1" d="M18.9,3H7V0h11.9V3z M3,0H0v3h3V0z M18.9,6H7v3h11.9V6z M3,6H0v3h3V6z M18.9,12H7v3h11.9V12z M3,12H0v3h3V12z"
		/>
	<path class="st2" d="M19.9,3H8V0h11.9V3z M4,0H1v3h3V0z M19.9,6H8v3h11.9V6z M4,6H1v3h3V6z M19.9,12H8v3h11.9V12z M4,12H1v3h3V12z"
		/>
	<path class="st3" d="M20.9,3H9V0h11.9V3z M5,0H2v3h3V0z M20.9,6H9v3h11.9V6z M5,6H2v3h3V6z M20.9,12H9v3h11.9V12z M5,12H2v3h3V12z"
		/>
</g>
</svg>
