<?xml version="1.0" encoding="utf-8"?>
<!-- Generator: Adobe Illustrator 22.1.0, SVG Export Plug-In . SVG Version: 6.00 Build 0)  -->
<svg version="1.1" id="Layer_1" xmlns="http://www.w3.org/2000/svg" xmlns:xlink="http://www.w3.org/1999/xlink" x="0px" y="0px"
	 width="592px" height="107px" viewBox="0 0 592 107" style="enable-background:new 0 0 592 107;" xml:space="preserve">
<style type="text/css">
	.st0{fill:#0018FF;enable-background:new    ;}
	.st1{fill:#FF0048;enable-background:new    ;}
	.st2{fill:#9C18FF;enable-background:new    ;}
	.st3{fill:#FFFFFF;}
</style>
<g id="vv-logo">
	<path class="st0" d="M-0.249,46.405h8.487V0h-8.487V46.405z M8.238,76.703h9.717V46.406H8.238V76.703z M17.954,107h9.006V76.703
		h-9.006V107z M26.96,76.703h7.477V46.406H26.96V76.703z M34.437,46.405h8.487V0h-8.487V46.405z M52.518,0v15.149H68.2v76.703
		H52.518V107H94.03V91.851H75.764V15.149H94.03V0H52.518z M204.175,0h42.46v8.915v6.234v76.703v6.755V107h-42.46v-8.393v-6.755
		V15.149V7.574V0z M212.688,91.851h26.547V15.149h-26.547V91.851z M153.102,0v10.4v4.749v31.217v14.709v30.777v13.162V107h41.624
		V91.851h-33.112V61.074h25.771V46.366h-25.771V15.149h33.112V0H153.102z M136.649,91.851h8.513V15.148h-8.513V91.851z M101.742,0
		v15.149v76.703V107h34.907V91.851h-26.393V15.149h26.393V0H101.742z M340.419,0.197h41.513v14.411v0.738V91.3v14.984v0.165h-41.513
		v-0.165V91.3V15.346V9.709V0.197z M347.984,91.3h26.383V15.346h-26.383V91.3z M482.629,0.197h-39.916v15.149h15.875v90.938h7.564
		V15.346h16.477V0.197z M543.549,106.284h7.564V76.303h-7.564V106.284z M551.113,76.303h8.672V61.463h-8.672V76.303z M577.684,0.355
		v29.869h-9.504v15.777h-8.396v15.462h9.412v14.839h8.487v29.981h7.565V76.303h-7.38V61.464h-8.58V46.001h8.396V30.336h7.565V0.355
		H577.684z M551.113,30.224V0.356h-7.564v29.981h7.564v15.664h8.672V30.224H551.113z M493.349,0.197v14.411v0.738v30.655V61.15V91.3
		v14.984v0.165h39.916V91.3h-32.352V61.15h23.285V46.001h-23.285V15.346h32.352V0.197H493.349z M424.735,60.364V45.215h-26.383
		V15.346h26.383V0.197h-26.383h-7.565v15.149v29.869v15.149v45.92h7.565v-45.92h9.409v15.939h7.564V60.364H424.735z M424.735,45.215
		h7.565V15.346h-7.565V45.215z M415.326,92.16h9.409V76.303h-9.409V92.16z M424.735,106.802h8.537V92.16h-8.537V106.802z
		 M313.114,76.303h9.862V46.137h-9.862V76.303z M288.843,46.137h7.297V0.197h-7.297V46.137z M296.14,76.303h9.862V46.137h-9.862
		V76.303z M306.002,106.284h7.297V76.316h-7.297V106.284z M322.976,46.137h7.297V0.197h-7.297V46.137z"/>
	<path class="st1" d="M6.751,46.405h8.487V0H6.751V46.405z M15.238,76.703h9.717V46.406h-9.717V76.703z M24.954,107h9.006V76.703
		h-9.006V107z M33.96,76.703h7.477V46.406H33.96V76.703z M41.437,46.405h8.487V0h-8.487V46.405z M59.518,0v15.149H75.2v76.703
		H59.518V107h41.512V91.851H82.764V15.149h18.266V0H59.518z M211.175,0h42.46v8.915v6.234v76.703v6.755V107h-42.46v-8.393v-6.755
		V15.149V7.574V0z M219.688,91.851h26.547V15.149h-26.547V91.851z M160.102,0v10.4v4.749v31.217v14.709v30.777v13.162V107h41.624
		V91.851h-33.112V61.074h25.771V46.366h-25.771V15.149h33.112V0H160.102z M143.649,91.851h8.513V15.148h-8.513V91.851z M108.742,0
		v15.149v76.703V107h34.907V91.851h-26.393V15.149h26.393V0H108.742z M347.419,0.197h41.513v14.411v0.738V91.3v14.984v0.165h-41.513
		v-0.165V91.3V15.346V9.709V0.197z M354.984,91.3h26.383V15.346h-26.383V91.3z M489.629,0.197h-39.916v15.149h15.875v90.938h7.564
		V15.346h16.477V0.197z M550.549,106.284h7.564V76.303h-7.564V106.284z M558.113,76.303h8.672V61.463h-8.672V76.303z M584.684,0.355
		v29.869h-9.504v15.777h-8.396v15.462h9.412v14.839h8.487v29.981h7.565V76.303h-7.38V61.464h-8.58V46.001h8.396V30.336h7.565V0.355
		H584.684z M558.113,30.224V0.356h-7.564v29.981h7.564v15.664h8.672V30.224H558.113z M500.349,0.197v14.411v0.738v30.655V61.15V91.3
		v14.984v0.165h39.916V91.3h-32.352V61.15h23.285V46.001h-23.285V15.346h32.352V0.197H500.349z M431.735,60.364V45.215h-26.383
		V15.346h26.383V0.197h-26.383h-7.565v15.149v29.869v15.149v45.92h7.565v-45.92h9.409v15.939h7.564V60.364H431.735z M431.735,45.215
		h7.565V15.346h-7.565V45.215z M422.326,92.16h9.409V76.303h-9.409V92.16z M431.735,106.802h8.537V92.16h-8.537V106.802z
		 M320.114,76.303h9.862V46.137h-9.862V76.303z M295.843,46.137h7.297V0.197h-7.297V46.137z M303.14,76.303h9.862V46.137h-9.862
		V76.303z M313.002,106.284h7.297V76.316h-7.297V106.284z M329.976,46.137h7.297V0.197h-7.297V46.137z"/>
	<path class="st2" d="M1.251,46.405h8.487V0H1.251V46.405z M9.738,76.703h9.717V46.406H9.738V76.703z M19.454,107h9.006V76.703
		h-9.006V107z M28.46,76.703h7.477V46.406H28.46V76.703z M35.937,46.405h8.487V0h-8.487V46.405z M54.018,0v15.149H69.7v76.703
		H54.018V107H95.53V91.851H77.264V15.149H95.53V0H54.018z M205.675,0h42.46v8.915v6.234v76.703v6.755V107h-42.46v-8.393v-6.755
		V15.149V7.574V0z M214.188,91.851h26.547V15.149h-26.547V91.851z M154.602,0v10.4v4.749v31.217v14.709v30.777v13.162V107h41.624
		V91.851h-33.112V61.074h25.771V46.366h-25.771V15.149h33.112V0H154.602z M138.149,91.851h8.513V15.148h-8.513V91.851z M103.242,0
		v15.149v76.703V107h34.907V91.851h-26.393V15.149h26.393V0H103.242z M341.919,0.197h41.513v14.411v0.738V91.3v14.984v0.165h-41.513
		v-0.165V91.3V15.346V9.709V0.197z M349.484,91.3h26.383V15.346h-26.383V91.3z M484.129,0.197h-39.916v15.149h15.875v90.938h7.564
		V15.346h16.477V0.197z M545.049,106.284h7.564V76.303h-7.564V106.284z M552.613,76.303h8.672V61.463h-8.672V76.303z M579.184,0.355
		v29.869h-9.504v15.777h-8.396v15.462h9.412v14.839h8.487v29.981h7.565V76.303h-7.38V61.464h-8.58V46.001h8.396V30.336h7.565V0.355
		H579.184z M552.613,30.224V0.356h-7.564v29.981h7.564v15.664h8.672V30.224H552.613z M494.849,0.197v14.411v0.738v30.655V61.15V91.3
		v14.984v0.165h39.916V91.3h-32.352V61.15h23.285V46.001h-23.285V15.346h32.352V0.197H494.849z M426.235,60.364V45.215h-26.383
		V15.346h26.383V0.197h-26.383h-7.565v15.149v29.869v15.149v45.92h7.565v-45.92h9.409v15.939h7.564V60.364H426.235z M426.235,45.215
		h7.565V15.346h-7.565V45.215z M416.826,92.16h9.409V76.303h-9.409V92.16z M426.235,106.802h8.537V92.16h-8.537V106.802z
		 M314.614,76.303h9.862V46.137h-9.862V76.303z M290.343,46.137h7.297V0.197h-7.297V46.137z M297.64,76.303h9.862V46.137h-9.862
		V76.303z M307.502,106.284h7.297V76.316h-7.297V106.284z M324.476,46.137h7.297V0.197h-7.297V46.137z"/>
	<path class="st3" d="M3.651,46.405h8.487V0H3.651V46.405z M12.138,76.703h9.717V46.406h-9.717V76.703z M21.854,107h9.006V76.703
		h-9.006V107z M30.86,76.703h7.477V46.406H30.86V76.703z M38.337,46.405h8.487V0h-8.487V46.405z M56.418,0v15.149H72.1v76.703
		H56.418V107H97.93V91.851H79.664V15.149H97.93V0H56.418z M208.075,0h42.46v8.915v6.234v76.703v6.755V107h-42.46v-8.393v-6.755
		V15.149V7.574V0z M216.588,91.851h26.547V15.149h-26.547V91.851z M157.002,0v10.4v4.749v31.217v14.709v30.777v13.162V107h41.624
		V91.851h-33.112V61.074h25.771V46.366h-25.771V15.149h33.112V0H157.002z M140.549,91.851h8.513V15.148h-8.513V91.851z M105.642,0
		v15.149v76.703V107h34.907V91.851h-26.393V15.149h26.393V0H105.642z M344.319,0.197h41.513v14.411v0.738V91.3v14.984v0.165h-41.513
		v-0.165V91.3V15.346V9.709V0.197z M351.884,91.3h26.383V15.346h-26.383V91.3z M486.529,0.197h-39.916v15.149h15.875v90.938h7.564
		V15.346h16.477V0.197z M547.449,106.284h7.564V76.303h-7.564V106.284z M555.013,76.303h8.672V61.463h-8.672V76.303z M581.584,0.355
		v29.869h-9.504v15.777h-8.396v15.462h9.412v14.839h8.487v29.981h7.565V76.303h-7.38V61.464h-8.58V46.001h8.396V30.336h7.565V0.355
		H581.584z M555.013,30.224V0.356h-7.564v29.981h7.564v15.664h8.672V30.224H555.013z M497.249,0.197v14.411v0.738v30.655V61.15V91.3
		v14.984v0.165h39.916V91.3h-32.352V61.15h23.286V46.001h-23.286V15.346h32.352V0.197H497.249z M428.635,60.364V45.215h-26.383
		V15.346h26.383V0.197h-26.383h-7.565v15.149v29.869v15.149v45.92h7.565v-45.92h9.409v15.939h7.564V60.364H428.635z M428.635,45.215
		h7.565V15.346h-7.565V45.215z M419.226,92.16h9.409V76.303h-9.409V92.16z M428.635,106.802h8.537V92.16h-8.537V106.802z
		 M317.014,76.303h9.862V46.137h-9.862V76.303z M292.743,46.137h7.297V0.197h-7.297V46.137z M300.04,76.303h9.862V46.137h-9.862
		V76.303z M309.902,106.284h7.297V76.316h-7.297V106.284z M326.876,46.137h7.297V0.197h-7.297V46.137z"/>
</g>
</svg>
